<?xml version="1.0" encoding="utf-8"?>
<svg xmlns="http://www.w3.org/2000/svg" xmlns:xlink="http://www.w3.org/1999/xlink" width="600" height="400" viewBox="0 0 2400 1600">
<defs>
  <clipPath id="clip100">
    <rect x="0" y="0" width="2400" height="1600"/>
  </clipPath>
</defs>
<path clip-path="url(#clip100)" d="
M0 1600 L2400 1600 L2400 0 L0 0  Z
  " fill="#ffffff" fill-rule="evenodd" fill-opacity="1"/>
<defs>
  <clipPath id="clip101">
    <rect x="480" y="0" width="1681" height="1600"/>
  </clipPath>
</defs>
<path clip-path="url(#clip100)" d="
M156.274 1486.45 L2352.76 1486.45 L2352.76 47.2441 L156.274 47.2441  Z
  " fill="#ffffff" fill-rule="evenodd" fill-opacity="1"/>
<defs>
  <clipPath id="clip102">
    <rect x="156" y="47" width="2197" height="1440"/>
  </clipPath>
</defs>
<polyline clip-path="url(#clip102)" style="stroke:#000000; stroke-linecap:butt; stroke-linejoin:round; stroke-width:2; stroke-opacity:0.1; fill:none" points="
  218.439,1486.45 218.439,47.2441 
  "/>
<polyline clip-path="url(#clip102)" style="stroke:#000000; stroke-linecap:butt; stroke-linejoin:round; stroke-width:2; stroke-opacity:0.1; fill:none" points="
  736.477,1486.45 736.477,47.2441 
  "/>
<polyline clip-path="url(#clip102)" style="stroke:#000000; stroke-linecap:butt; stroke-linejoin:round; stroke-width:2; stroke-opacity:0.1; fill:none" points="
  1254.52,1486.45 1254.52,47.2441 
  "/>
<polyline clip-path="url(#clip102)" style="stroke:#000000; stroke-linecap:butt; stroke-linejoin:round; stroke-width:2; stroke-opacity:0.1; fill:none" points="
  1772.55,1486.45 1772.55,47.2441 
  "/>
<polyline clip-path="url(#clip102)" style="stroke:#000000; stroke-linecap:butt; stroke-linejoin:round; stroke-width:2; stroke-opacity:0.1; fill:none" points="
  2290.59,1486.45 2290.59,47.2441 
  "/>
<polyline clip-path="url(#clip100)" style="stroke:#000000; stroke-linecap:butt; stroke-linejoin:round; stroke-width:4; stroke-opacity:1; fill:none" points="
  156.274,1486.45 2352.76,1486.45 
  "/>
<polyline clip-path="url(#clip100)" style="stroke:#000000; stroke-linecap:butt; stroke-linejoin:round; stroke-width:4; stroke-opacity:1; fill:none" points="
  218.439,1486.45 218.439,1467.55 
  "/>
<polyline clip-path="url(#clip100)" style="stroke:#000000; stroke-linecap:butt; stroke-linejoin:round; stroke-width:4; stroke-opacity:1; fill:none" points="
  736.477,1486.45 736.477,1467.55 
  "/>
<polyline clip-path="url(#clip100)" style="stroke:#000000; stroke-linecap:butt; stroke-linejoin:round; stroke-width:4; stroke-opacity:1; fill:none" points="
  1254.52,1486.45 1254.52,1467.55 
  "/>
<polyline clip-path="url(#clip100)" style="stroke:#000000; stroke-linecap:butt; stroke-linejoin:round; stroke-width:4; stroke-opacity:1; fill:none" points="
  1772.55,1486.45 1772.55,1467.55 
  "/>
<polyline clip-path="url(#clip100)" style="stroke:#000000; stroke-linecap:butt; stroke-linejoin:round; stroke-width:4; stroke-opacity:1; fill:none" points="
  2290.59,1486.45 2290.59,1467.55 
  "/>
<path clip-path="url(#clip100)" d="M218.439 1517.37 Q214.828 1517.37 212.999 1520.93 Q211.193 1524.47 211.193 1531.6 Q211.193 1538.71 212.999 1542.27 Q214.828 1545.82 218.439 1545.82 Q222.073 1545.82 223.879 1542.27 Q225.707 1538.71 225.707 1531.6 Q225.707 1524.47 223.879 1520.93 Q222.073 1517.37 218.439 1517.37 M218.439 1513.66 Q224.249 1513.66 227.304 1518.27 Q230.383 1522.85 230.383 1531.6 Q230.383 1540.33 227.304 1544.94 Q224.249 1549.52 218.439 1549.52 Q212.629 1549.52 209.55 1544.94 Q206.494 1540.33 206.494 1531.6 Q206.494 1522.85 209.55 1518.27 Q212.629 1513.66 218.439 1513.66 Z" fill="#000000" fill-rule="evenodd" fill-opacity="1" /><path clip-path="url(#clip100)" d="M726.755 1514.29 L745.111 1514.29 L745.111 1518.22 L731.037 1518.22 L731.037 1526.7 Q732.056 1526.35 733.074 1526.19 Q734.093 1526 735.111 1526 Q740.898 1526 744.278 1529.17 Q747.657 1532.34 747.657 1537.76 Q747.657 1543.34 744.185 1546.44 Q740.713 1549.52 734.394 1549.52 Q732.218 1549.52 729.949 1549.15 Q727.704 1548.78 725.296 1548.04 L725.296 1543.34 Q727.38 1544.47 729.602 1545.03 Q731.824 1545.58 734.301 1545.58 Q738.306 1545.58 740.644 1543.48 Q742.981 1541.37 742.981 1537.76 Q742.981 1534.15 740.644 1532.04 Q738.306 1529.94 734.301 1529.94 Q732.426 1529.94 730.551 1530.35 Q728.699 1530.77 726.755 1531.65 L726.755 1514.29 Z" fill="#000000" fill-rule="evenodd" fill-opacity="1" /><path clip-path="url(#clip100)" d="M1229.2 1544.91 L1236.84 1544.91 L1236.84 1518.55 L1228.53 1520.21 L1228.53 1515.95 L1236.8 1514.29 L1241.47 1514.29 L1241.47 1544.91 L1249.11 1544.91 L1249.11 1548.85 L1229.2 1548.85 L1229.2 1544.91 Z" fill="#000000" fill-rule="evenodd" fill-opacity="1" /><path clip-path="url(#clip100)" d="M1268.55 1517.37 Q1264.94 1517.37 1263.11 1520.93 Q1261.31 1524.47 1261.31 1531.6 Q1261.31 1538.71 1263.11 1542.27 Q1264.94 1545.82 1268.55 1545.82 Q1272.19 1545.82 1273.99 1542.27 Q1275.82 1538.71 1275.82 1531.6 Q1275.82 1524.47 1273.99 1520.93 Q1272.19 1517.37 1268.55 1517.37 M1268.55 1513.66 Q1274.36 1513.66 1277.42 1518.27 Q1280.5 1522.85 1280.5 1531.6 Q1280.5 1540.33 1277.42 1544.94 Q1274.36 1549.52 1268.55 1549.52 Q1262.74 1549.52 1259.67 1544.94 Q1256.61 1540.33 1256.61 1531.6 Q1256.61 1522.85 1259.67 1518.27 Q1262.74 1513.66 1268.55 1513.66 Z" fill="#000000" fill-rule="evenodd" fill-opacity="1" /><path clip-path="url(#clip100)" d="M1747.74 1544.91 L1755.38 1544.91 L1755.38 1518.55 L1747.07 1520.21 L1747.07 1515.95 L1755.33 1514.29 L1760.01 1514.29 L1760.01 1544.91 L1767.65 1544.91 L1767.65 1548.85 L1747.74 1548.85 L1747.74 1544.91 Z" fill="#000000" fill-rule="evenodd" fill-opacity="1" /><path clip-path="url(#clip100)" d="M1777.14 1514.29 L1795.49 1514.29 L1795.49 1518.22 L1781.42 1518.22 L1781.42 1526.7 Q1782.44 1526.35 1783.46 1526.19 Q1784.47 1526 1785.49 1526 Q1791.28 1526 1794.66 1529.17 Q1798.04 1532.34 1798.04 1537.76 Q1798.04 1543.34 1794.57 1546.44 Q1791.09 1549.52 1784.78 1549.52 Q1782.6 1549.52 1780.33 1549.15 Q1778.09 1548.78 1775.68 1548.04 L1775.68 1543.34 Q1777.76 1544.47 1779.98 1545.03 Q1782.21 1545.58 1784.68 1545.58 Q1788.69 1545.58 1791.03 1543.48 Q1793.36 1541.37 1793.36 1537.76 Q1793.36 1534.15 1791.03 1532.04 Q1788.69 1529.94 1784.68 1529.94 Q1782.81 1529.94 1780.93 1530.35 Q1779.08 1530.77 1777.14 1531.65 L1777.14 1514.29 Z" fill="#000000" fill-rule="evenodd" fill-opacity="1" /><path clip-path="url(#clip100)" d="M2269.36 1544.91 L2285.68 1544.91 L2285.68 1548.85 L2263.74 1548.85 L2263.74 1544.91 Q2266.4 1542.16 2270.98 1537.53 Q2275.59 1532.88 2276.77 1531.53 Q2279.02 1529.01 2279.9 1527.27 Q2280.8 1525.51 2280.8 1523.82 Q2280.8 1521.07 2278.86 1519.33 Q2276.93 1517.6 2273.83 1517.6 Q2271.63 1517.6 2269.18 1518.36 Q2266.75 1519.13 2263.97 1520.68 L2263.97 1515.95 Q2266.8 1514.82 2269.25 1514.24 Q2271.7 1513.66 2273.74 1513.66 Q2279.11 1513.66 2282.3 1516.35 Q2285.5 1519.03 2285.5 1523.52 Q2285.5 1525.65 2284.69 1527.57 Q2283.9 1529.47 2281.8 1532.07 Q2281.22 1532.74 2278.11 1535.95 Q2275.01 1539.15 2269.36 1544.91 Z" fill="#000000" fill-rule="evenodd" fill-opacity="1" /><path clip-path="url(#clip100)" d="M2305.5 1517.37 Q2301.89 1517.37 2300.06 1520.93 Q2298.25 1524.47 2298.25 1531.6 Q2298.25 1538.71 2300.06 1542.27 Q2301.89 1545.82 2305.5 1545.82 Q2309.13 1545.82 2310.94 1542.27 Q2312.77 1538.71 2312.77 1531.6 Q2312.77 1524.47 2310.94 1520.93 Q2309.13 1517.37 2305.5 1517.37 M2305.5 1513.66 Q2311.31 1513.66 2314.36 1518.27 Q2317.44 1522.85 2317.44 1531.6 Q2317.44 1540.33 2314.36 1544.94 Q2311.31 1549.52 2305.5 1549.52 Q2299.69 1549.52 2296.61 1544.94 Q2293.55 1540.33 2293.55 1531.6 Q2293.55 1522.85 2296.61 1518.27 Q2299.69 1513.66 2305.5 1513.66 Z" fill="#000000" fill-rule="evenodd" fill-opacity="1" /><polyline clip-path="url(#clip102)" style="stroke:#000000; stroke-linecap:butt; stroke-linejoin:round; stroke-width:2; stroke-opacity:0.1; fill:none" points="
  156.274,1452.72 2352.76,1452.72 
  "/>
<polyline clip-path="url(#clip102)" style="stroke:#000000; stroke-linecap:butt; stroke-linejoin:round; stroke-width:2; stroke-opacity:0.1; fill:none" points="
  156.274,1179.77 2352.76,1179.77 
  "/>
<polyline clip-path="url(#clip102)" style="stroke:#000000; stroke-linecap:butt; stroke-linejoin:round; stroke-width:2; stroke-opacity:0.1; fill:none" points="
  156.274,906.822 2352.76,906.822 
  "/>
<polyline clip-path="url(#clip102)" style="stroke:#000000; stroke-linecap:butt; stroke-linejoin:round; stroke-width:2; stroke-opacity:0.1; fill:none" points="
  156.274,633.873 2352.76,633.873 
  "/>
<polyline clip-path="url(#clip102)" style="stroke:#000000; stroke-linecap:butt; stroke-linejoin:round; stroke-width:2; stroke-opacity:0.1; fill:none" points="
  156.274,360.925 2352.76,360.925 
  "/>
<polyline clip-path="url(#clip102)" style="stroke:#000000; stroke-linecap:butt; stroke-linejoin:round; stroke-width:2; stroke-opacity:0.1; fill:none" points="
  156.274,87.9763 2352.76,87.9763 
  "/>
<polyline clip-path="url(#clip100)" style="stroke:#000000; stroke-linecap:butt; stroke-linejoin:round; stroke-width:4; stroke-opacity:1; fill:none" points="
  156.274,1486.45 156.274,47.2441 
  "/>
<polyline clip-path="url(#clip100)" style="stroke:#000000; stroke-linecap:butt; stroke-linejoin:round; stroke-width:4; stroke-opacity:1; fill:none" points="
  156.274,1452.72 175.172,1452.72 
  "/>
<polyline clip-path="url(#clip100)" style="stroke:#000000; stroke-linecap:butt; stroke-linejoin:round; stroke-width:4; stroke-opacity:1; fill:none" points="
  156.274,1179.77 175.172,1179.77 
  "/>
<polyline clip-path="url(#clip100)" style="stroke:#000000; stroke-linecap:butt; stroke-linejoin:round; stroke-width:4; stroke-opacity:1; fill:none" points="
  156.274,906.822 175.172,906.822 
  "/>
<polyline clip-path="url(#clip100)" style="stroke:#000000; stroke-linecap:butt; stroke-linejoin:round; stroke-width:4; stroke-opacity:1; fill:none" points="
  156.274,633.873 175.172,633.873 
  "/>
<polyline clip-path="url(#clip100)" style="stroke:#000000; stroke-linecap:butt; stroke-linejoin:round; stroke-width:4; stroke-opacity:1; fill:none" points="
  156.274,360.925 175.172,360.925 
  "/>
<polyline clip-path="url(#clip100)" style="stroke:#000000; stroke-linecap:butt; stroke-linejoin:round; stroke-width:4; stroke-opacity:1; fill:none" points="
  156.274,87.9763 175.172,87.9763 
  "/>
<path clip-path="url(#clip100)" d="M64.0939 1438.52 Q60.4828 1438.52 58.6541 1442.08 Q56.8486 1445.62 56.8486 1452.75 Q56.8486 1459.86 58.6541 1463.43 Q60.4828 1466.97 64.0939 1466.97 Q67.7281 1466.97 69.5337 1463.43 Q71.3624 1459.86 71.3624 1452.75 Q71.3624 1445.62 69.5337 1442.08 Q67.7281 1438.52 64.0939 1438.52 M64.0939 1434.81 Q69.9041 1434.81 72.9596 1439.42 Q76.0383 1444 76.0383 1452.75 Q76.0383 1461.48 72.9596 1466.09 Q69.9041 1470.67 64.0939 1470.67 Q58.2838 1470.67 55.2051 1466.09 Q52.1495 1461.48 52.1495 1452.75 Q52.1495 1444 55.2051 1439.42 Q58.2838 1434.81 64.0939 1434.81 Z" fill="#000000" fill-rule="evenodd" fill-opacity="1" /><path clip-path="url(#clip100)" d="M84.2558 1464.12 L89.1401 1464.12 L89.1401 1470 L84.2558 1470 L84.2558 1464.12 Z" fill="#000000" fill-rule="evenodd" fill-opacity="1" /><path clip-path="url(#clip100)" d="M99.3715 1435.44 L117.728 1435.44 L117.728 1439.37 L103.654 1439.37 L103.654 1447.85 Q104.672 1447.5 105.691 1447.34 Q106.709 1447.15 107.728 1447.15 Q113.515 1447.15 116.895 1450.32 Q120.274 1453.49 120.274 1458.91 Q120.274 1464.49 116.802 1467.59 Q113.33 1470.67 107.01 1470.67 Q104.834 1470.67 102.566 1470.3 Q100.321 1469.93 97.9132 1469.19 L97.9132 1464.49 Q99.9965 1465.62 102.219 1466.18 Q104.441 1466.74 106.918 1466.74 Q110.922 1466.74 113.26 1464.63 Q115.598 1462.52 115.598 1458.91 Q115.598 1455.3 113.26 1453.19 Q110.922 1451.09 106.918 1451.09 Q105.043 1451.09 103.168 1451.5 Q101.316 1451.92 99.3715 1452.8 L99.3715 1435.44 Z" fill="#000000" fill-rule="evenodd" fill-opacity="1" /><path clip-path="url(#clip100)" d="M62.9365 1165.57 Q59.3254 1165.57 57.4967 1169.13 Q55.6912 1172.68 55.6912 1179.81 Q55.6912 1186.91 57.4967 1190.48 Q59.3254 1194.02 62.9365 1194.02 Q66.5707 1194.02 68.3763 1190.48 Q70.205 1186.91 70.205 1179.81 Q70.205 1172.68 68.3763 1169.13 Q66.5707 1165.57 62.9365 1165.57 M62.9365 1161.87 Q68.7467 1161.87 71.8022 1166.47 Q74.8809 1171.06 74.8809 1179.81 Q74.8809 1188.53 71.8022 1193.14 Q68.7467 1197.72 62.9365 1197.72 Q57.1264 1197.72 54.0477 1193.14 Q50.9921 1188.53 50.9921 1179.81 Q50.9921 1171.06 54.0477 1166.47 Q57.1264 1161.87 62.9365 1161.87 Z" fill="#000000" fill-rule="evenodd" fill-opacity="1" /><path clip-path="url(#clip100)" d="M83.0984 1191.17 L87.9827 1191.17 L87.9827 1197.05 L83.0984 1197.05 L83.0984 1191.17 Z" fill="#000000" fill-rule="evenodd" fill-opacity="1" /><path clip-path="url(#clip100)" d="M108.746 1177.91 Q105.598 1177.91 103.746 1180.06 Q101.918 1182.21 101.918 1185.96 Q101.918 1189.69 103.746 1191.87 Q105.598 1194.02 108.746 1194.02 Q111.895 1194.02 113.723 1191.87 Q115.575 1189.69 115.575 1185.96 Q115.575 1182.21 113.723 1180.06 Q111.895 1177.91 108.746 1177.91 M118.029 1163.25 L118.029 1167.51 Q116.27 1166.68 114.464 1166.24 Q112.682 1165.8 110.922 1165.8 Q106.293 1165.8 103.839 1168.93 Q101.409 1172.05 101.061 1178.37 Q102.427 1176.36 104.487 1175.29 Q106.547 1174.2 109.024 1174.2 Q114.233 1174.2 117.242 1177.37 Q120.274 1180.52 120.274 1185.96 Q120.274 1191.29 117.126 1194.5 Q113.978 1197.72 108.746 1197.72 Q102.751 1197.72 99.5798 1193.14 Q96.4085 1188.53 96.4085 1179.81 Q96.4085 1171.61 100.297 1166.75 Q104.186 1161.87 110.737 1161.87 Q112.496 1161.87 114.279 1162.21 Q116.084 1162.56 118.029 1163.25 Z" fill="#000000" fill-rule="evenodd" fill-opacity="1" /><path clip-path="url(#clip100)" d="M64.0013 892.621 Q60.3902 892.621 58.5615 896.186 Q56.756 899.727 56.756 906.857 Q56.756 913.963 58.5615 917.528 Q60.3902 921.07 64.0013 921.07 Q67.6356 921.07 69.4411 917.528 Q71.2698 913.963 71.2698 906.857 Q71.2698 899.727 69.4411 896.186 Q67.6356 892.621 64.0013 892.621 M64.0013 888.917 Q69.8115 888.917 72.867 893.524 Q75.9457 898.107 75.9457 906.857 Q75.9457 915.584 72.867 920.19 Q69.8115 924.773 64.0013 924.773 Q58.1912 924.773 55.1125 920.19 Q52.0569 915.584 52.0569 906.857 Q52.0569 898.107 55.1125 893.524 Q58.1912 888.917 64.0013 888.917 Z" fill="#000000" fill-rule="evenodd" fill-opacity="1" /><path clip-path="url(#clip100)" d="M84.1632 918.222 L89.0475 918.222 L89.0475 924.102 L84.1632 924.102 L84.1632 918.222 Z" fill="#000000" fill-rule="evenodd" fill-opacity="1" /><path clip-path="url(#clip100)" d="M98.0521 889.542 L120.274 889.542 L120.274 891.533 L107.728 924.102 L102.844 924.102 L114.649 893.477 L98.0521 893.477 L98.0521 889.542 Z" fill="#000000" fill-rule="evenodd" fill-opacity="1" /><path clip-path="url(#clip100)" d="M63.1911 619.672 Q59.58 619.672 57.7513 623.237 Q55.9458 626.779 55.9458 633.908 Q55.9458 641.015 57.7513 644.579 Q59.58 648.121 63.1911 648.121 Q66.8254 648.121 68.6309 644.579 Q70.4596 641.015 70.4596 633.908 Q70.4596 626.779 68.6309 623.237 Q66.8254 619.672 63.1911 619.672 M63.1911 615.968 Q69.0013 615.968 72.0568 620.575 Q75.1355 625.158 75.1355 633.908 Q75.1355 642.635 72.0568 647.241 Q69.0013 651.825 63.1911 651.825 Q57.381 651.825 54.3023 647.241 Q51.2468 642.635 51.2468 633.908 Q51.2468 625.158 54.3023 620.575 Q57.381 615.968 63.1911 615.968 Z" fill="#000000" fill-rule="evenodd" fill-opacity="1" /><path clip-path="url(#clip100)" d="M83.3531 645.274 L88.2373 645.274 L88.2373 651.153 L83.3531 651.153 L83.3531 645.274 Z" fill="#000000" fill-rule="evenodd" fill-opacity="1" /><path clip-path="url(#clip100)" d="M108.422 634.742 Q105.089 634.742 103.168 636.524 Q101.27 638.306 101.27 641.431 Q101.27 644.556 103.168 646.339 Q105.089 648.121 108.422 648.121 Q111.756 648.121 113.677 646.339 Q115.598 644.533 115.598 641.431 Q115.598 638.306 113.677 636.524 Q111.779 634.742 108.422 634.742 M103.746 632.751 Q100.737 632.01 99.0474 629.95 Q97.3808 627.89 97.3808 624.927 Q97.3808 620.783 100.321 618.376 Q103.284 615.968 108.422 615.968 Q113.584 615.968 116.524 618.376 Q119.464 620.783 119.464 624.927 Q119.464 627.89 117.774 629.95 Q116.108 632.01 113.121 632.751 Q116.501 633.538 118.376 635.829 Q120.274 638.121 120.274 641.431 Q120.274 646.454 117.195 649.14 Q114.14 651.825 108.422 651.825 Q102.705 651.825 99.6261 649.14 Q96.5706 646.454 96.5706 641.431 Q96.5706 638.121 98.4687 635.829 Q100.367 633.538 103.746 632.751 M102.034 625.367 Q102.034 628.052 103.7 629.556 Q105.39 631.061 108.422 631.061 Q111.432 631.061 113.121 629.556 Q114.834 628.052 114.834 625.367 Q114.834 622.681 113.121 621.177 Q111.432 619.672 108.422 619.672 Q105.39 619.672 103.7 621.177 Q102.034 622.681 102.034 625.367 Z" fill="#000000" fill-rule="evenodd" fill-opacity="1" /><path clip-path="url(#clip100)" d="M63.2837 346.724 Q59.6726 346.724 57.8439 350.288 Q56.0384 353.83 56.0384 360.96 Q56.0384 368.066 57.8439 371.631 Q59.6726 375.172 63.2837 375.172 Q66.918 375.172 68.7235 371.631 Q70.5522 368.066 70.5522 360.96 Q70.5522 353.83 68.7235 350.288 Q66.918 346.724 63.2837 346.724 M63.2837 343.02 Q69.0939 343.02 72.1494 347.626 Q75.2281 352.21 75.2281 360.96 Q75.2281 369.686 72.1494 374.293 Q69.0939 378.876 63.2837 378.876 Q57.4736 378.876 54.3949 374.293 Q51.3393 369.686 51.3393 360.96 Q51.3393 352.21 54.3949 347.626 Q57.4736 343.02 63.2837 343.02 Z" fill="#000000" fill-rule="evenodd" fill-opacity="1" /><path clip-path="url(#clip100)" d="M83.4457 372.325 L88.3299 372.325 L88.3299 378.205 L83.4457 378.205 L83.4457 372.325 Z" fill="#000000" fill-rule="evenodd" fill-opacity="1" /><path clip-path="url(#clip100)" d="M98.6539 377.487 L98.6539 373.228 Q100.413 374.061 102.219 374.501 Q104.024 374.941 105.76 374.941 Q110.39 374.941 112.82 371.839 Q115.274 368.714 115.621 362.372 Q114.279 364.362 112.219 365.427 Q110.158 366.492 107.658 366.492 Q102.473 366.492 99.4409 363.367 Q96.4317 360.219 96.4317 354.779 Q96.4317 349.455 99.5798 346.237 Q102.728 343.02 107.959 343.02 Q113.955 343.02 117.103 347.626 Q120.274 352.21 120.274 360.96 Q120.274 369.131 116.385 374.015 Q112.52 378.876 105.969 378.876 Q104.209 378.876 102.404 378.529 Q100.598 378.182 98.6539 377.487 M107.959 362.835 Q111.108 362.835 112.936 360.682 Q114.788 358.529 114.788 354.779 Q114.788 351.052 112.936 348.899 Q111.108 346.724 107.959 346.724 Q104.811 346.724 102.959 348.899 Q101.131 351.052 101.131 354.779 Q101.131 358.529 102.959 360.682 Q104.811 362.835 107.959 362.835 Z" fill="#000000" fill-rule="evenodd" fill-opacity="1" /><path clip-path="url(#clip100)" d="M53.9088 101.321 L61.5476 101.321 L61.5476 74.9555 L53.2375 76.6222 L53.2375 72.3629 L61.5013 70.6963 L66.1772 70.6963 L66.1772 101.321 L73.8161 101.321 L73.8161 105.256 L53.9088 105.256 L53.9088 101.321 Z" fill="#000000" fill-rule="evenodd" fill-opacity="1" /><path clip-path="url(#clip100)" d="M83.2605 99.3767 L88.1447 99.3767 L88.1447 105.256 L83.2605 105.256 L83.2605 99.3767 Z" fill="#000000" fill-rule="evenodd" fill-opacity="1" /><path clip-path="url(#clip100)" d="M108.33 73.775 Q104.719 73.775 102.89 77.3398 Q101.084 80.8814 101.084 88.011 Q101.084 95.1174 102.89 98.6822 Q104.719 102.224 108.33 102.224 Q111.964 102.224 113.77 98.6822 Q115.598 95.1174 115.598 88.011 Q115.598 80.8814 113.77 77.3398 Q111.964 73.775 108.33 73.775 M108.33 70.0713 Q114.14 70.0713 117.195 74.6777 Q120.274 79.261 120.274 88.011 Q120.274 96.7378 117.195 101.344 Q114.14 105.928 108.33 105.928 Q102.52 105.928 99.4409 101.344 Q96.3854 96.7378 96.3854 88.011 Q96.3854 79.261 99.4409 74.6777 Q102.52 70.0713 108.33 70.0713 Z" fill="#000000" fill-rule="evenodd" fill-opacity="1" /><polyline clip-path="url(#clip102)" style="stroke:#009af9; stroke-linecap:butt; stroke-linejoin:round; stroke-width:4; stroke-opacity:1; fill:none" points="
  218.439,87.9763 322.046,180.278 425.654,269.458 529.262,355.622 632.869,438.873 736.477,519.308 840.085,597.024 943.692,672.111 1047.3,744.659 1150.91,814.754 
  1254.52,882.478 1358.12,947.913 1461.73,1011.13 1565.34,1072.22 1668.95,1131.24 1772.55,1188.26 1876.16,1243.35 1979.77,1296.58 2083.38,1348.01 2186.98,1397.7 
  2290.59,1445.72 
  "/>
<polyline clip-path="url(#clip102)" style="stroke:#e26f46; stroke-linecap:butt; stroke-linejoin:round; stroke-width:4; stroke-opacity:1; fill:none" points="
  218.439,87.9763 322.046,101.556 425.654,115.068 529.262,128.513 632.869,141.89 736.477,155.202 840.085,168.447 943.692,181.626 1047.3,194.74 1150.91,207.788 
  1254.52,220.771 1358.12,233.69 1461.73,246.545 1565.34,259.335 1668.95,272.062 1772.55,284.726 1876.16,297.327 1979.77,309.865 2083.38,322.34 2186.98,334.754 
  2290.59,347.106 
  "/>
<path clip-path="url(#clip100)" d="
M1315.93 250.738 L2279.54 250.738 L2279.54 95.2176 L1315.93 95.2176  Z
  " fill="#ffffff" fill-rule="evenodd" fill-opacity="1"/>
<polyline clip-path="url(#clip100)" style="stroke:#000000; stroke-linecap:butt; stroke-linejoin:round; stroke-width:4; stroke-opacity:1; fill:none" points="
  1315.93,250.738 2279.54,250.738 2279.54,95.2176 1315.93,95.2176 1315.93,250.738 
  "/>
<polyline clip-path="url(#clip100)" style="stroke:#009af9; stroke-linecap:butt; stroke-linejoin:round; stroke-width:4; stroke-opacity:1; fill:none" points="
  1340.34,147.058 1486.77,147.058 
  "/>
<path clip-path="url(#clip100)" d="M1527.19 132.949 Q1522.1 132.949 1519.09 136.745 Q1516.1 140.541 1516.1 147.092 Q1516.1 153.62 1519.09 157.416 Q1522.1 161.213 1527.19 161.213 Q1532.28 161.213 1535.25 157.416 Q1538.23 153.62 1538.23 147.092 Q1538.23 140.541 1535.25 136.745 Q1532.28 132.949 1527.19 132.949 M1533.74 163.713 L1539.9 170.449 L1534.25 170.449 L1529.14 164.916 Q1528.37 164.963 1527.96 164.986 Q1527.56 165.009 1527.19 165.009 Q1519.9 165.009 1515.52 160.148 Q1511.17 155.264 1511.17 147.092 Q1511.17 138.898 1515.52 134.037 Q1519.9 129.153 1527.19 129.153 Q1534.46 129.153 1538.81 134.037 Q1543.16 138.898 1543.16 147.092 Q1543.16 153.111 1540.73 157.393 Q1538.33 161.676 1533.74 163.713 Z" fill="#000000" fill-rule="evenodd" fill-opacity="1" /><path clip-path="url(#clip100)" d="M1562.03 134.384 L1555.69 151.583 L1568.39 151.583 L1562.03 134.384 M1559.39 129.778 L1564.69 129.778 L1577.86 164.338 L1573 164.338 L1569.85 155.472 L1554.27 155.472 L1551.13 164.338 L1546.2 164.338 L1559.39 129.778 Z" fill="#000000" fill-rule="evenodd" fill-opacity="1" /><path clip-path="url(#clip100)" d="M1582.91 129.778 L1587.58 129.778 L1587.58 160.402 L1604.41 160.402 L1604.41 164.338 L1582.91 164.338 L1582.91 129.778 Z" fill="#000000" fill-rule="evenodd" fill-opacity="1" /><path clip-path="url(#clip100)" d="M1598.28 129.778 L1603.3 129.778 L1612.89 143.99 L1622.4 129.778 L1627.42 129.778 L1615.2 147.879 L1615.2 164.338 L1610.5 164.338 L1610.5 147.879 L1598.28 129.778 Z" fill="#000000" fill-rule="evenodd" fill-opacity="1" /><path clip-path="url(#clip100)" d="M1643.81 138.412 L1648.32 138.412 L1656.43 160.171 L1664.53 138.412 L1669.04 138.412 L1659.32 164.338 L1653.53 164.338 L1643.81 138.412 Z" fill="#000000" fill-rule="evenodd" fill-opacity="1" /><path clip-path="url(#clip100)" d="M1686.7 151.305 Q1681.54 151.305 1679.55 152.486 Q1677.56 153.666 1677.56 156.514 Q1677.56 158.782 1679.04 160.125 Q1680.55 161.444 1683.12 161.444 Q1686.66 161.444 1688.79 158.944 Q1690.94 156.421 1690.94 152.254 L1690.94 151.305 L1686.7 151.305 M1695.2 149.546 L1695.2 164.338 L1690.94 164.338 L1690.94 160.402 Q1689.48 162.763 1687.31 163.898 Q1685.13 165.009 1681.98 165.009 Q1678 165.009 1675.64 162.787 Q1673.3 160.541 1673.3 156.791 Q1673.3 152.416 1676.22 150.194 Q1679.16 147.972 1684.97 147.972 L1690.94 147.972 L1690.94 147.555 Q1690.94 144.615 1689 143.018 Q1687.07 141.398 1683.58 141.398 Q1681.36 141.398 1679.25 141.93 Q1677.14 142.463 1675.2 143.527 L1675.2 139.592 Q1677.54 138.69 1679.74 138.25 Q1681.94 137.787 1684.02 137.787 Q1689.64 137.787 1692.42 140.703 Q1695.2 143.62 1695.2 149.546 Z" fill="#000000" fill-rule="evenodd" fill-opacity="1" /><path clip-path="url(#clip100)" d="M1703.97 128.319 L1708.23 128.319 L1708.23 164.338 L1703.97 164.338 L1703.97 128.319 Z" fill="#000000" fill-rule="evenodd" fill-opacity="1" /><path clip-path="url(#clip100)" d="M1716.7 154.106 L1716.7 138.412 L1720.96 138.412 L1720.96 153.944 Q1720.96 157.625 1722.4 159.476 Q1723.83 161.305 1726.7 161.305 Q1730.15 161.305 1732.14 159.106 Q1734.16 156.907 1734.16 153.111 L1734.16 138.412 L1738.42 138.412 L1738.42 164.338 L1734.16 164.338 L1734.16 160.356 Q1732.61 162.717 1730.55 163.875 Q1728.51 165.009 1725.8 165.009 Q1721.33 165.009 1719.02 162.231 Q1716.7 159.453 1716.7 154.106 M1727.42 137.787 L1727.42 137.787 Z" fill="#000000" fill-rule="evenodd" fill-opacity="1" /><path clip-path="url(#clip100)" d="M1769.37 150.31 L1769.37 152.393 L1749.78 152.393 Q1750.06 156.791 1752.42 159.106 Q1754.81 161.398 1759.04 161.398 Q1761.5 161.398 1763.79 160.796 Q1766.1 160.194 1768.37 158.99 L1768.37 163.018 Q1766.08 163.99 1763.67 164.5 Q1761.26 165.009 1758.79 165.009 Q1752.58 165.009 1748.95 161.398 Q1745.34 157.787 1745.34 151.629 Q1745.34 145.264 1748.76 141.537 Q1752.21 137.787 1758.05 137.787 Q1763.28 137.787 1766.31 141.166 Q1769.37 144.523 1769.37 150.31 M1765.11 149.06 Q1765.06 145.565 1763.14 143.481 Q1761.24 141.398 1758.09 141.398 Q1754.53 141.398 1752.38 143.412 Q1750.25 145.426 1749.92 149.083 L1765.11 149.06 Z" fill="#000000" fill-rule="evenodd" fill-opacity="1" /><path clip-path="url(#clip100)" d="M1791.43 128.319 L1795.69 128.319 L1795.69 164.338 L1791.43 164.338 L1791.43 128.319 Z" fill="#000000" fill-rule="evenodd" fill-opacity="1" /><path clip-path="url(#clip100)" d="M1814.64 141.398 Q1811.22 141.398 1809.23 144.083 Q1807.24 146.745 1807.24 151.398 Q1807.24 156.051 1809.2 158.736 Q1811.19 161.398 1814.64 161.398 Q1818.05 161.398 1820.04 158.713 Q1822.03 156.027 1822.03 151.398 Q1822.03 146.791 1820.04 144.106 Q1818.05 141.398 1814.64 141.398 M1814.64 137.787 Q1820.2 137.787 1823.37 141.398 Q1826.54 145.009 1826.54 151.398 Q1826.54 157.764 1823.37 161.398 Q1820.2 165.009 1814.64 165.009 Q1809.06 165.009 1805.89 161.398 Q1802.75 157.764 1802.75 151.398 Q1802.75 145.009 1805.89 141.398 Q1809.06 137.787 1814.64 137.787 Z" fill="#000000" fill-rule="evenodd" fill-opacity="1" /><path clip-path="url(#clip100)" d="M1850.13 139.176 L1850.13 143.203 Q1848.32 142.277 1846.38 141.815 Q1844.43 141.352 1842.35 141.352 Q1839.18 141.352 1837.58 142.324 Q1836.01 143.296 1836.01 145.24 Q1836.01 146.722 1837.14 147.578 Q1838.28 148.412 1841.7 149.176 L1843.16 149.5 Q1847.7 150.472 1849.6 152.254 Q1851.52 154.014 1851.52 157.185 Q1851.52 160.796 1848.65 162.902 Q1845.8 165.009 1840.8 165.009 Q1838.72 165.009 1836.45 164.592 Q1834.2 164.199 1831.7 163.388 L1831.7 158.99 Q1834.06 160.217 1836.36 160.842 Q1838.65 161.444 1840.89 161.444 Q1843.9 161.444 1845.52 160.426 Q1847.14 159.384 1847.14 157.509 Q1847.14 155.773 1845.96 154.847 Q1844.81 153.921 1840.85 153.064 L1839.37 152.717 Q1835.41 151.884 1833.65 150.171 Q1831.89 148.435 1831.89 145.426 Q1831.89 141.768 1834.48 139.778 Q1837.07 137.787 1841.84 137.787 Q1844.2 137.787 1846.29 138.134 Q1848.37 138.481 1850.13 139.176 Z" fill="#000000" fill-rule="evenodd" fill-opacity="1" /><path clip-path="url(#clip100)" d="M1874.83 139.176 L1874.83 143.203 Q1873.02 142.277 1871.08 141.815 Q1869.13 141.352 1867.05 141.352 Q1863.88 141.352 1862.28 142.324 Q1860.71 143.296 1860.71 145.24 Q1860.71 146.722 1861.84 147.578 Q1862.98 148.412 1866.4 149.176 L1867.86 149.5 Q1872.4 150.472 1874.3 152.254 Q1876.22 154.014 1876.22 157.185 Q1876.22 160.796 1873.35 162.902 Q1870.5 165.009 1865.5 165.009 Q1863.42 165.009 1861.15 164.592 Q1858.9 164.199 1856.4 163.388 L1856.4 158.99 Q1858.76 160.217 1861.06 160.842 Q1863.35 161.444 1865.59 161.444 Q1868.6 161.444 1870.22 160.426 Q1871.84 159.384 1871.84 157.509 Q1871.84 155.773 1870.66 154.847 Q1869.5 153.921 1865.55 153.064 L1864.06 152.717 Q1860.11 151.884 1858.35 150.171 Q1856.59 148.435 1856.59 145.426 Q1856.59 141.768 1859.18 139.778 Q1861.77 137.787 1866.54 137.787 Q1868.9 137.787 1870.99 138.134 Q1873.07 138.481 1874.83 139.176 Z" fill="#000000" fill-rule="evenodd" fill-opacity="1" /><path clip-path="url(#clip100)" d="M1909.85 151.305 Q1904.69 151.305 1902.7 152.486 Q1900.71 153.666 1900.71 156.514 Q1900.71 158.782 1902.19 160.125 Q1903.69 161.444 1906.26 161.444 Q1909.8 161.444 1911.93 158.944 Q1914.09 156.421 1914.09 152.254 L1914.09 151.305 L1909.85 151.305 M1918.35 149.546 L1918.35 164.338 L1914.09 164.338 L1914.09 160.402 Q1912.63 162.763 1910.45 163.898 Q1908.28 165.009 1905.13 165.009 Q1901.15 165.009 1898.79 162.787 Q1896.45 160.541 1896.45 156.791 Q1896.45 152.416 1899.37 150.194 Q1902.3 147.972 1908.12 147.972 L1914.09 147.972 L1914.09 147.555 Q1914.09 144.615 1912.14 143.018 Q1910.22 141.398 1906.73 141.398 Q1904.5 141.398 1902.4 141.93 Q1900.29 142.463 1898.35 143.527 L1898.35 139.592 Q1900.68 138.69 1902.88 138.25 Q1905.08 137.787 1907.17 137.787 Q1912.79 137.787 1915.57 140.703 Q1918.35 143.62 1918.35 149.546 Z" fill="#000000" fill-rule="evenodd" fill-opacity="1" /><path clip-path="url(#clip100)" d="M1931.33 131.051 L1931.33 138.412 L1940.11 138.412 L1940.11 141.722 L1931.33 141.722 L1931.33 155.796 Q1931.33 158.967 1932.19 159.87 Q1933.07 160.773 1935.73 160.773 L1940.11 160.773 L1940.11 164.338 L1935.73 164.338 Q1930.8 164.338 1928.93 162.509 Q1927.05 160.657 1927.05 155.796 L1927.05 141.722 L1923.93 141.722 L1923.93 138.412 L1927.05 138.412 L1927.05 131.051 L1931.33 131.051 Z" fill="#000000" fill-rule="evenodd" fill-opacity="1" /><path clip-path="url(#clip100)" d="M1975.8 142.393 Q1975.08 141.977 1974.23 141.791 Q1973.39 141.583 1972.37 141.583 Q1968.76 141.583 1966.82 143.944 Q1964.9 146.282 1964.9 150.68 L1964.9 164.338 L1960.61 164.338 L1960.61 138.412 L1964.9 138.412 L1964.9 142.44 Q1966.24 140.078 1968.39 138.944 Q1970.55 137.787 1973.62 137.787 Q1974.06 137.787 1974.6 137.856 Q1975.13 137.903 1975.78 138.018 L1975.8 142.393 Z" fill="#000000" fill-rule="evenodd" fill-opacity="1" /><path clip-path="url(#clip100)" d="M1992.05 151.305 Q1986.89 151.305 1984.9 152.486 Q1982.91 153.666 1982.91 156.514 Q1982.91 158.782 1984.39 160.125 Q1985.89 161.444 1988.46 161.444 Q1992 161.444 1994.13 158.944 Q1996.29 156.421 1996.29 152.254 L1996.29 151.305 L1992.05 151.305 M2000.55 149.546 L2000.55 164.338 L1996.29 164.338 L1996.29 160.402 Q1994.83 162.763 1992.65 163.898 Q1990.48 165.009 1987.33 165.009 Q1983.35 165.009 1980.99 162.787 Q1978.65 160.541 1978.65 156.791 Q1978.65 152.416 1981.56 150.194 Q1984.5 147.972 1990.31 147.972 L1996.29 147.972 L1996.29 147.555 Q1996.29 144.615 1994.34 143.018 Q1992.42 141.398 1988.92 141.398 Q1986.7 141.398 1984.6 141.93 Q1982.49 142.463 1980.55 143.527 L1980.55 139.592 Q1982.88 138.69 1985.08 138.25 Q1987.28 137.787 1989.36 137.787 Q1994.99 137.787 1997.77 140.703 Q2000.55 143.62 2000.55 149.546 Z" fill="#000000" fill-rule="evenodd" fill-opacity="1" /><path clip-path="url(#clip100)" d="M2013.53 131.051 L2013.53 138.412 L2022.3 138.412 L2022.3 141.722 L2013.53 141.722 L2013.53 155.796 Q2013.53 158.967 2014.39 159.87 Q2015.27 160.773 2017.93 160.773 L2022.3 160.773 L2022.3 164.338 L2017.93 164.338 Q2013 164.338 2011.12 162.509 Q2009.25 160.657 2009.25 155.796 L2009.25 141.722 L2006.12 141.722 L2006.12 138.412 L2009.25 138.412 L2009.25 131.051 L2013.53 131.051 Z" fill="#000000" fill-rule="evenodd" fill-opacity="1" /><path clip-path="url(#clip100)" d="M2050.08 150.31 L2050.08 152.393 L2030.5 152.393 Q2030.78 156.791 2033.14 159.106 Q2035.52 161.398 2039.76 161.398 Q2042.21 161.398 2044.5 160.796 Q2046.82 160.194 2049.09 158.99 L2049.09 163.018 Q2046.79 163.99 2044.39 164.5 Q2041.98 165.009 2039.5 165.009 Q2033.3 165.009 2029.67 161.398 Q2026.05 157.787 2026.05 151.629 Q2026.05 145.264 2029.48 141.537 Q2032.93 137.787 2038.76 137.787 Q2043.99 137.787 2047.03 141.166 Q2050.08 144.523 2050.08 150.31 M2045.82 149.06 Q2045.78 145.565 2043.86 143.481 Q2041.96 141.398 2038.81 141.398 Q2035.24 141.398 2033.09 143.412 Q2030.96 145.426 2030.64 149.083 L2045.82 149.06 Z" fill="#000000" fill-rule="evenodd" fill-opacity="1" /><path clip-path="url(#clip100)" d="M2086.91 145.703 Q2090.27 146.421 2092.14 148.689 Q2094.04 150.958 2094.04 154.291 Q2094.04 159.407 2090.52 162.208 Q2087 165.009 2080.52 165.009 Q2078.35 165.009 2076.03 164.569 Q2073.74 164.152 2071.29 163.296 L2071.29 158.782 Q2073.23 159.916 2075.54 160.495 Q2077.86 161.074 2080.38 161.074 Q2084.78 161.074 2087.07 159.338 Q2089.39 157.601 2089.39 154.291 Q2089.39 151.236 2087.23 149.523 Q2085.1 147.787 2081.29 147.787 L2077.26 147.787 L2077.26 143.944 L2081.47 143.944 Q2084.92 143.944 2086.75 142.578 Q2088.58 141.19 2088.58 138.597 Q2088.58 135.935 2086.68 134.523 Q2084.8 133.088 2081.29 133.088 Q2079.36 133.088 2077.17 133.504 Q2074.97 133.921 2072.33 134.801 L2072.33 130.634 Q2074.99 129.893 2077.3 129.523 Q2079.64 129.153 2081.7 129.153 Q2087.03 129.153 2090.13 131.583 Q2093.23 133.99 2093.23 138.111 Q2093.23 140.981 2091.59 142.972 Q2089.94 144.94 2086.91 145.703 Z" fill="#000000" fill-rule="evenodd" fill-opacity="1" /><path clip-path="url(#clip100)" d="M2102.91 158.458 L2107.79 158.458 L2107.79 164.338 L2102.91 164.338 L2102.91 158.458 Z" fill="#000000" fill-rule="evenodd" fill-opacity="1" /><path clip-path="url(#clip100)" d="M2118.02 129.778 L2136.38 129.778 L2136.38 133.713 L2122.3 133.713 L2122.3 142.185 Q2123.32 141.838 2124.34 141.676 Q2125.36 141.49 2126.38 141.49 Q2132.16 141.49 2135.54 144.662 Q2138.92 147.833 2138.92 153.25 Q2138.92 158.828 2135.45 161.93 Q2131.98 165.009 2125.66 165.009 Q2123.48 165.009 2121.22 164.638 Q2118.97 164.268 2116.56 163.527 L2116.56 158.828 Q2118.65 159.963 2120.87 160.518 Q2123.09 161.074 2125.57 161.074 Q2129.57 161.074 2131.91 158.967 Q2134.25 156.861 2134.25 153.25 Q2134.25 149.639 2131.91 147.532 Q2129.57 145.426 2125.57 145.426 Q2123.69 145.426 2121.82 145.842 Q2119.97 146.259 2118.02 147.139 L2118.02 129.778 Z" fill="#000000" fill-rule="evenodd" fill-opacity="1" /><path clip-path="url(#clip100)" d="M2177.53 149.129 Q2175.52 149.129 2174.36 150.842 Q2173.23 152.555 2173.23 155.611 Q2173.23 158.62 2174.36 160.356 Q2175.52 162.069 2177.53 162.069 Q2179.5 162.069 2180.64 160.356 Q2181.79 158.62 2181.79 155.611 Q2181.79 152.578 2180.64 150.865 Q2179.5 149.129 2177.53 149.129 M2177.53 146.19 Q2181.19 146.19 2183.35 148.736 Q2185.5 151.282 2185.5 155.611 Q2185.5 159.939 2183.32 162.486 Q2181.17 165.009 2177.53 165.009 Q2173.83 165.009 2171.68 162.486 Q2169.53 159.939 2169.53 155.611 Q2169.53 151.259 2171.68 148.736 Q2173.85 146.19 2177.53 146.19 M2153.65 132.092 Q2151.66 132.092 2150.5 133.828 Q2149.36 135.541 2149.36 138.551 Q2149.36 141.606 2150.5 143.319 Q2151.63 145.032 2153.65 145.032 Q2155.66 145.032 2156.79 143.319 Q2157.95 141.606 2157.95 138.551 Q2157.95 135.565 2156.79 133.828 Q2155.64 132.092 2153.65 132.092 M2174.55 129.153 L2178.25 129.153 L2156.63 165.009 L2152.93 165.009 L2174.55 129.153 M2153.65 129.153 Q2157.3 129.153 2159.48 131.699 Q2161.66 134.222 2161.66 138.551 Q2161.66 142.926 2159.48 145.449 Q2157.33 147.972 2153.65 147.972 Q2149.97 147.972 2147.81 145.449 Q2145.68 142.902 2145.68 138.551 Q2145.68 134.245 2147.84 131.699 Q2149.99 129.153 2153.65 129.153 Z" fill="#000000" fill-rule="evenodd" fill-opacity="1" /><path clip-path="url(#clip100)" d="M2200.15 129.778 L2204.09 129.778 L2192.05 168.736 L2188.11 168.736 L2200.15 129.778 Z" fill="#000000" fill-rule="evenodd" fill-opacity="1" /><path clip-path="url(#clip100)" d="M2219.34 166.745 Q2217.53 171.375 2215.82 172.787 Q2214.11 174.199 2211.24 174.199 L2207.84 174.199 L2207.84 170.634 L2210.34 170.634 Q2212.09 170.634 2213.07 169.8 Q2214.04 168.967 2215.22 165.865 L2215.98 163.921 L2205.5 138.412 L2210.01 138.412 L2218.11 158.689 L2226.22 138.412 L2230.73 138.412 L2219.34 166.745 Z" fill="#000000" fill-rule="evenodd" fill-opacity="1" /><polyline clip-path="url(#clip100)" style="stroke:#e26f46; stroke-linecap:butt; stroke-linejoin:round; stroke-width:4; stroke-opacity:1; fill:none" points="
  1340.34,198.898 1486.77,198.898 
  "/>
<path clip-path="url(#clip100)" d="M1511.17 181.618 L1518.14 181.618 L1526.96 205.136 L1535.83 181.618 L1542.79 181.618 L1542.79 216.178 L1538.23 216.178 L1538.23 185.83 L1529.32 209.534 L1524.62 209.534 L1515.71 185.83 L1515.71 216.178 L1511.17 216.178 L1511.17 181.618 Z" fill="#000000" fill-rule="evenodd" fill-opacity="1" /><path clip-path="url(#clip100)" d="M1561.94 193.238 Q1558.51 193.238 1556.52 195.923 Q1554.53 198.585 1554.53 203.238 Q1554.53 207.891 1556.5 210.576 Q1558.49 213.238 1561.94 213.238 Q1565.34 213.238 1567.33 210.553 Q1569.32 207.867 1569.32 203.238 Q1569.32 198.631 1567.33 195.946 Q1565.34 193.238 1561.94 193.238 M1561.94 189.627 Q1567.49 189.627 1570.66 193.238 Q1573.83 196.849 1573.83 203.238 Q1573.83 209.604 1570.66 213.238 Q1567.49 216.849 1561.94 216.849 Q1556.36 216.849 1553.19 213.238 Q1550.04 209.604 1550.04 203.238 Q1550.04 196.849 1553.19 193.238 Q1556.36 189.627 1561.94 189.627 Z" fill="#000000" fill-rule="evenodd" fill-opacity="1" /><path clip-path="url(#clip100)" d="M1602.45 200.529 L1602.45 216.178 L1598.19 216.178 L1598.19 200.668 Q1598.19 196.988 1596.75 195.159 Q1595.32 193.33 1592.45 193.33 Q1589 193.33 1587.01 195.53 Q1585.02 197.729 1585.02 201.525 L1585.02 216.178 L1580.73 216.178 L1580.73 190.252 L1585.02 190.252 L1585.02 194.28 Q1586.54 191.942 1588.6 190.784 Q1590.69 189.627 1593.39 189.627 Q1597.86 189.627 1600.15 192.405 Q1602.45 195.159 1602.45 200.529 Z" fill="#000000" fill-rule="evenodd" fill-opacity="1" /><path clip-path="url(#clip100)" d="M1633.12 202.15 L1633.12 204.233 L1613.53 204.233 Q1613.81 208.631 1616.17 210.946 Q1618.56 213.238 1622.79 213.238 Q1625.25 213.238 1627.54 212.636 Q1629.85 212.034 1632.12 210.83 L1632.12 214.858 Q1629.83 215.83 1627.42 216.34 Q1625.01 216.849 1622.54 216.849 Q1616.33 216.849 1612.7 213.238 Q1609.09 209.627 1609.09 203.469 Q1609.09 197.104 1612.51 193.377 Q1615.96 189.627 1621.8 189.627 Q1627.03 189.627 1630.06 193.006 Q1633.12 196.363 1633.12 202.15 M1628.86 200.9 Q1628.81 197.405 1626.89 195.321 Q1624.99 193.238 1621.84 193.238 Q1618.28 193.238 1616.13 195.252 Q1614 197.266 1613.67 200.923 L1628.86 200.9 Z" fill="#000000" fill-rule="evenodd" fill-opacity="1" /><path clip-path="url(#clip100)" d="M1650.89 218.585 Q1649.09 223.215 1647.38 224.627 Q1645.66 226.039 1642.79 226.039 L1639.39 226.039 L1639.39 222.474 L1641.89 222.474 Q1643.65 222.474 1644.62 221.64 Q1645.59 220.807 1646.77 217.705 L1647.54 215.761 L1637.05 190.252 L1641.57 190.252 L1649.67 210.529 L1657.77 190.252 L1662.28 190.252 L1650.89 218.585 Z" fill="#000000" fill-rule="evenodd" fill-opacity="1" /><path clip-path="url(#clip100)" d="M1680.18 190.252 L1684.69 190.252 L1692.79 212.011 L1700.89 190.252 L1705.41 190.252 L1695.69 216.178 L1689.9 216.178 L1680.18 190.252 Z" fill="#000000" fill-rule="evenodd" fill-opacity="1" /><path clip-path="url(#clip100)" d="M1723.07 203.145 Q1717.91 203.145 1715.92 204.326 Q1713.93 205.506 1713.93 208.354 Q1713.93 210.622 1715.41 211.965 Q1716.91 213.284 1719.48 213.284 Q1723.02 213.284 1725.15 210.784 Q1727.31 208.261 1727.31 204.094 L1727.31 203.145 L1723.07 203.145 M1731.57 201.386 L1731.57 216.178 L1727.31 216.178 L1727.31 212.242 Q1725.85 214.603 1723.67 215.738 Q1721.5 216.849 1718.35 216.849 Q1714.37 216.849 1712.01 214.627 Q1709.67 212.381 1709.67 208.631 Q1709.67 204.256 1712.58 202.034 Q1715.52 199.812 1721.33 199.812 L1727.31 199.812 L1727.31 199.395 Q1727.31 196.455 1725.36 194.858 Q1723.44 193.238 1719.94 193.238 Q1717.72 193.238 1715.62 193.77 Q1713.51 194.303 1711.57 195.367 L1711.57 191.432 Q1713.9 190.53 1716.1 190.09 Q1718.3 189.627 1720.38 189.627 Q1726.01 189.627 1728.79 192.543 Q1731.57 195.46 1731.57 201.386 Z" fill="#000000" fill-rule="evenodd" fill-opacity="1" /><path clip-path="url(#clip100)" d="M1740.34 180.159 L1744.6 180.159 L1744.6 216.178 L1740.34 216.178 L1740.34 180.159 Z" fill="#000000" fill-rule="evenodd" fill-opacity="1" /><path clip-path="url(#clip100)" d="M1753.07 205.946 L1753.07 190.252 L1757.33 190.252 L1757.33 205.784 Q1757.33 209.465 1758.76 211.316 Q1760.2 213.145 1763.07 213.145 Q1766.52 213.145 1768.51 210.946 Q1770.52 208.747 1770.52 204.951 L1770.52 190.252 L1774.78 190.252 L1774.78 216.178 L1770.52 216.178 L1770.52 212.196 Q1768.97 214.557 1766.91 215.715 Q1764.88 216.849 1762.17 216.849 Q1757.7 216.849 1755.38 214.071 Q1753.07 211.293 1753.07 205.946 M1763.79 189.627 L1763.79 189.627 Z" fill="#000000" fill-rule="evenodd" fill-opacity="1" /><path clip-path="url(#clip100)" d="M1805.73 202.15 L1805.73 204.233 L1786.15 204.233 Q1786.43 208.631 1788.79 210.946 Q1791.17 213.238 1795.41 213.238 Q1797.86 213.238 1800.15 212.636 Q1802.47 212.034 1804.74 210.83 L1804.74 214.858 Q1802.44 215.83 1800.04 216.34 Q1797.63 216.849 1795.15 216.849 Q1788.95 216.849 1785.31 213.238 Q1781.7 209.627 1781.7 203.469 Q1781.7 197.104 1785.13 193.377 Q1788.58 189.627 1794.41 189.627 Q1799.64 189.627 1802.68 193.006 Q1805.73 196.363 1805.73 202.15 M1801.47 200.9 Q1801.43 197.405 1799.5 195.321 Q1797.61 193.238 1794.46 193.238 Q1790.89 193.238 1788.74 195.252 Q1786.61 197.266 1786.29 200.923 L1801.47 200.9 Z" fill="#000000" fill-rule="evenodd" fill-opacity="1" /><path clip-path="url(#clip100)" d="M1827.79 180.159 L1832.05 180.159 L1832.05 216.178 L1827.79 216.178 L1827.79 180.159 Z" fill="#000000" fill-rule="evenodd" fill-opacity="1" /><path clip-path="url(#clip100)" d="M1851.01 193.238 Q1847.58 193.238 1845.59 195.923 Q1843.6 198.585 1843.6 203.238 Q1843.6 207.891 1845.57 210.576 Q1847.56 213.238 1851.01 213.238 Q1854.41 213.238 1856.4 210.553 Q1858.39 207.867 1858.39 203.238 Q1858.39 198.631 1856.4 195.946 Q1854.41 193.238 1851.01 193.238 M1851.01 189.627 Q1856.56 189.627 1859.74 193.238 Q1862.91 196.849 1862.91 203.238 Q1862.91 209.604 1859.74 213.238 Q1856.56 216.849 1851.01 216.849 Q1845.43 216.849 1842.26 213.238 Q1839.11 209.604 1839.11 203.238 Q1839.11 196.849 1842.26 193.238 Q1845.43 189.627 1851.01 189.627 Z" fill="#000000" fill-rule="evenodd" fill-opacity="1" /><path clip-path="url(#clip100)" d="M1886.49 191.016 L1886.49 195.043 Q1884.69 194.117 1882.74 193.655 Q1880.8 193.192 1878.72 193.192 Q1875.55 193.192 1873.95 194.164 Q1872.37 195.136 1872.37 197.08 Q1872.37 198.562 1873.51 199.418 Q1874.64 200.252 1878.07 201.016 L1879.53 201.34 Q1884.06 202.312 1885.96 204.094 Q1887.88 205.854 1887.88 209.025 Q1887.88 212.636 1885.01 214.742 Q1882.17 216.849 1877.17 216.849 Q1875.08 216.849 1872.81 216.432 Q1870.57 216.039 1868.07 215.228 L1868.07 210.83 Q1870.43 212.057 1872.72 212.682 Q1875.01 213.284 1877.26 213.284 Q1880.27 213.284 1881.89 212.266 Q1883.51 211.224 1883.51 209.349 Q1883.51 207.613 1882.33 206.687 Q1881.17 205.761 1877.21 204.904 L1875.73 204.557 Q1871.77 203.724 1870.01 202.011 Q1868.25 200.275 1868.25 197.266 Q1868.25 193.608 1870.85 191.618 Q1873.44 189.627 1878.21 189.627 Q1880.57 189.627 1882.65 189.974 Q1884.74 190.321 1886.49 191.016 Z" fill="#000000" fill-rule="evenodd" fill-opacity="1" /><path clip-path="url(#clip100)" d="M1911.19 191.016 L1911.19 195.043 Q1909.39 194.117 1907.44 193.655 Q1905.5 193.192 1903.42 193.192 Q1900.24 193.192 1898.65 194.164 Q1897.07 195.136 1897.07 197.08 Q1897.07 198.562 1898.21 199.418 Q1899.34 200.252 1902.77 201.016 L1904.23 201.34 Q1908.76 202.312 1910.66 204.094 Q1912.58 205.854 1912.58 209.025 Q1912.58 212.636 1909.71 214.742 Q1906.87 216.849 1901.87 216.849 Q1899.78 216.849 1897.51 216.432 Q1895.27 216.039 1892.77 215.228 L1892.77 210.83 Q1895.13 212.057 1897.42 212.682 Q1899.71 213.284 1901.96 213.284 Q1904.97 213.284 1906.59 212.266 Q1908.21 211.224 1908.21 209.349 Q1908.21 207.613 1907.03 206.687 Q1905.87 205.761 1901.91 204.904 L1900.43 204.557 Q1896.47 203.724 1894.71 202.011 Q1892.95 200.275 1892.95 197.266 Q1892.95 193.608 1895.55 191.618 Q1898.14 189.627 1902.91 189.627 Q1905.27 189.627 1907.35 189.974 Q1909.43 190.321 1911.19 191.016 Z" fill="#000000" fill-rule="evenodd" fill-opacity="1" /><path clip-path="url(#clip100)" d="M1946.22 203.145 Q1941.05 203.145 1939.06 204.326 Q1937.07 205.506 1937.07 208.354 Q1937.07 210.622 1938.55 211.965 Q1940.06 213.284 1942.63 213.284 Q1946.17 213.284 1948.3 210.784 Q1950.45 208.261 1950.45 204.094 L1950.45 203.145 L1946.22 203.145 M1954.71 201.386 L1954.71 216.178 L1950.45 216.178 L1950.45 212.242 Q1948.99 214.603 1946.82 215.738 Q1944.64 216.849 1941.49 216.849 Q1937.51 216.849 1935.15 214.627 Q1932.81 212.381 1932.81 208.631 Q1932.81 204.256 1935.73 202.034 Q1938.67 199.812 1944.48 199.812 L1950.45 199.812 L1950.45 199.395 Q1950.45 196.455 1948.51 194.858 Q1946.59 193.238 1943.09 193.238 Q1940.87 193.238 1938.76 193.77 Q1936.66 194.303 1934.71 195.367 L1934.71 191.432 Q1937.05 190.53 1939.25 190.09 Q1941.45 189.627 1943.53 189.627 Q1949.16 189.627 1951.93 192.543 Q1954.71 195.46 1954.71 201.386 Z" fill="#000000" fill-rule="evenodd" fill-opacity="1" /><path clip-path="url(#clip100)" d="M1967.7 182.891 L1967.7 190.252 L1976.47 190.252 L1976.47 193.562 L1967.7 193.562 L1967.7 207.636 Q1967.7 210.807 1968.55 211.71 Q1969.43 212.613 1972.1 212.613 L1976.47 212.613 L1976.47 216.178 L1972.1 216.178 Q1967.17 216.178 1965.29 214.349 Q1963.42 212.497 1963.42 207.636 L1963.42 193.562 L1960.29 193.562 L1960.29 190.252 L1963.42 190.252 L1963.42 182.891 L1967.7 182.891 Z" fill="#000000" fill-rule="evenodd" fill-opacity="1" /><path clip-path="url(#clip100)" d="M2012.17 194.233 Q2011.45 193.817 2010.59 193.631 Q2009.76 193.423 2008.74 193.423 Q2005.13 193.423 2003.18 195.784 Q2001.26 198.122 2001.26 202.52 L2001.26 216.178 L1996.98 216.178 L1996.98 190.252 L2001.26 190.252 L2001.26 194.28 Q2002.61 191.918 2004.76 190.784 Q2006.91 189.627 2009.99 189.627 Q2010.43 189.627 2010.96 189.696 Q2011.49 189.743 2012.14 189.858 L2012.17 194.233 Z" fill="#000000" fill-rule="evenodd" fill-opacity="1" /><path clip-path="url(#clip100)" d="M2028.42 203.145 Q2023.25 203.145 2021.26 204.326 Q2019.27 205.506 2019.27 208.354 Q2019.27 210.622 2020.75 211.965 Q2022.26 213.284 2024.83 213.284 Q2028.37 213.284 2030.5 210.784 Q2032.65 208.261 2032.65 204.094 L2032.65 203.145 L2028.42 203.145 M2036.91 201.386 L2036.91 216.178 L2032.65 216.178 L2032.65 212.242 Q2031.19 214.603 2029.02 215.738 Q2026.84 216.849 2023.69 216.849 Q2019.71 216.849 2017.35 214.627 Q2015.01 212.381 2015.01 208.631 Q2015.01 204.256 2017.93 202.034 Q2020.87 199.812 2026.68 199.812 L2032.65 199.812 L2032.65 199.395 Q2032.65 196.455 2030.71 194.858 Q2028.79 193.238 2025.29 193.238 Q2023.07 193.238 2020.96 193.77 Q2018.86 194.303 2016.91 195.367 L2016.91 191.432 Q2019.25 190.53 2021.45 190.09 Q2023.65 189.627 2025.73 189.627 Q2031.36 189.627 2034.13 192.543 Q2036.91 195.46 2036.91 201.386 Z" fill="#000000" fill-rule="evenodd" fill-opacity="1" /><path clip-path="url(#clip100)" d="M2049.9 182.891 L2049.9 190.252 L2058.67 190.252 L2058.67 193.562 L2049.9 193.562 L2049.9 207.636 Q2049.9 210.807 2050.75 211.71 Q2051.63 212.613 2054.29 212.613 L2058.67 212.613 L2058.67 216.178 L2054.29 216.178 Q2049.36 216.178 2047.49 214.349 Q2045.61 212.497 2045.61 207.636 L2045.61 193.562 L2042.49 193.562 L2042.49 190.252 L2045.61 190.252 L2045.61 182.891 L2049.9 182.891 Z" fill="#000000" fill-rule="evenodd" fill-opacity="1" /><path clip-path="url(#clip100)" d="M2086.45 202.15 L2086.45 204.233 L2066.86 204.233 Q2067.14 208.631 2069.5 210.946 Q2071.89 213.238 2076.12 213.238 Q2078.58 213.238 2080.87 212.636 Q2083.18 212.034 2085.45 210.83 L2085.45 214.858 Q2083.16 215.83 2080.75 216.34 Q2078.35 216.849 2075.87 216.849 Q2069.67 216.849 2066.03 213.238 Q2062.42 209.627 2062.42 203.469 Q2062.42 197.104 2065.85 193.377 Q2069.29 189.627 2075.13 189.627 Q2080.36 189.627 2083.39 193.006 Q2086.45 196.363 2086.45 202.15 M2082.19 200.9 Q2082.14 197.405 2080.22 195.321 Q2078.32 193.238 2075.17 193.238 Q2071.61 193.238 2069.46 195.252 Q2067.33 197.266 2067 200.923 L2082.19 200.9 Z" fill="#000000" fill-rule="evenodd" fill-opacity="1" /><path clip-path="url(#clip100)" d="M2109.16 181.618 L2127.51 181.618 L2127.51 185.553 L2113.44 185.553 L2113.44 194.025 Q2114.46 193.678 2115.48 193.516 Q2116.49 193.33 2117.51 193.33 Q2123.3 193.33 2126.68 196.502 Q2130.06 199.673 2130.06 205.09 Q2130.06 210.668 2126.59 213.77 Q2123.11 216.849 2116.79 216.849 Q2114.62 216.849 2112.35 216.478 Q2110.1 216.108 2107.7 215.367 L2107.7 210.668 Q2109.78 211.803 2112 212.358 Q2114.23 212.914 2116.7 212.914 Q2120.71 212.914 2123.04 210.807 Q2125.38 208.701 2125.38 205.09 Q2125.38 201.479 2123.04 199.372 Q2120.71 197.266 2116.7 197.266 Q2114.83 197.266 2112.95 197.682 Q2111.1 198.099 2109.16 198.979 L2109.16 181.618 Z" fill="#000000" fill-rule="evenodd" fill-opacity="1" /><path clip-path="url(#clip100)" d="M2168.67 200.969 Q2166.66 200.969 2165.5 202.682 Q2164.36 204.395 2164.36 207.451 Q2164.36 210.46 2165.5 212.196 Q2166.66 213.909 2168.67 213.909 Q2170.64 213.909 2171.77 212.196 Q2172.93 210.46 2172.93 207.451 Q2172.93 204.418 2171.77 202.705 Q2170.64 200.969 2168.67 200.969 M2168.67 198.03 Q2172.33 198.03 2174.48 200.576 Q2176.63 203.122 2176.63 207.451 Q2176.63 211.779 2174.46 214.326 Q2172.3 216.849 2168.67 216.849 Q2164.97 216.849 2162.81 214.326 Q2160.66 211.779 2160.66 207.451 Q2160.66 203.099 2162.81 200.576 Q2164.99 198.03 2168.67 198.03 M2144.78 183.932 Q2142.79 183.932 2141.63 185.668 Q2140.5 187.381 2140.5 190.391 Q2140.5 193.446 2141.63 195.159 Q2142.77 196.872 2144.78 196.872 Q2146.79 196.872 2147.93 195.159 Q2149.09 193.446 2149.09 190.391 Q2149.09 187.405 2147.93 185.668 Q2146.77 183.932 2144.78 183.932 M2165.68 180.993 L2169.39 180.993 L2147.77 216.849 L2144.06 216.849 L2165.68 180.993 M2144.78 180.993 Q2148.44 180.993 2150.61 183.539 Q2152.79 186.062 2152.79 190.391 Q2152.79 194.766 2150.61 197.289 Q2148.46 199.812 2144.78 199.812 Q2141.1 199.812 2138.95 197.289 Q2136.82 194.742 2136.82 190.391 Q2136.82 186.085 2138.97 183.539 Q2141.12 180.993 2144.78 180.993 Z" fill="#000000" fill-rule="evenodd" fill-opacity="1" /><path clip-path="url(#clip100)" d="M2191.28 181.618 L2195.22 181.618 L2183.18 220.576 L2179.25 220.576 L2191.28 181.618 Z" fill="#000000" fill-rule="evenodd" fill-opacity="1" /><path clip-path="url(#clip100)" d="M2210.47 218.585 Q2208.67 223.215 2206.96 224.627 Q2205.24 226.039 2202.37 226.039 L2198.97 226.039 L2198.97 222.474 L2201.47 222.474 Q2203.23 222.474 2204.2 221.64 Q2205.17 220.807 2206.35 217.705 L2207.12 215.761 L2196.63 190.252 L2201.15 190.252 L2209.25 210.529 L2217.35 190.252 L2221.86 190.252 L2210.47 218.585 Z" fill="#000000" fill-rule="evenodd" fill-opacity="1" /></svg>
